<?xml version="1.0"?>
<svg width="640" height="480" xmlns="http://www.w3.org/2000/svg" xmlns:svg="http://www.w3.org/2000/svg">
 <!-- Created with SVG-edit - http://svg-edit.googlecode.com/ -->
 <g>
  <title>Layer 1</title>
  <path d="m65,165c1.599998,0.610672 2.292618,1.307495 2.800003,1.800003c0.710648,0.689819 1.516289,1.128922 2.374664,1.189331c0.937744,0.065994 1.825691,0.034515 2.625336,0.010666c0.958443,-0.028595 1.850395,-0.384995 2.446663,-0.574661c1.156281,-0.367798 1.980347,-0.384277 2.528,-0.450668c1.30909,-0.158691 2.001442,-0.407074 2.678001,-0.679169c0.970589,-0.39035 1.771858,-0.671158 2.537498,-0.995499c0.879196,-0.372437 1.59903,-0.938126 2.331169,-1.399841c0.657631,-0.414734 1.808838,-0.501556 2.512001,-1.066833c0.681496,-0.547867 1.055252,-1.241287 1.6875,-1.854156c0.626228,-0.607025 0.939796,-1.291153 1.779167,-1.869339c0.713089,-0.491196 1.401123,-0.813202 2.110664,-1.520493c0.757202,-0.754807 1.269348,-1.213806 1.727997,-1.764008c0.74791,-0.897186 0.981628,-1.683868 1.722672,-2.225327c0.620377,-0.453293 1.511467,-0.990799 2.138664,-1.600006c0.608673,-0.591202 1.300003,-1.300003 1.800003,-1.800003c0.699997,-0.699997 1.399994,-1.399994 1.899994,-1.899994c0.700005,-0.699997 1.399193,-1.400818 1.900002,-1.900009c0.698883,-0.696625 1.550026,-0.984726 2.233337,-1.566666c0.739868,-0.630096 0.992065,-1.311707 2,-1.666656c0.73571,-0.259094 1.561104,-0.601181 2.365334,-1.082672c0.743622,-0.445206 1.249435,-0.938782 2.101334,-1.088501c0.928169,-0.163132 1.468147,-0.841888 2.335999,-0.984833c1.003204,-0.165237 1.711334,-0.010666 2.727997,-0.010666c0.936005,0 1.835999,0 2.736,0c0.900002,0 1.734444,0.195953 2.599998,-0.057159c0.87764,-0.256638 1.598648,-0.914246 2.5,-0.942841c0.899551,-0.028534 1.800003,0 2.600006,0c0.899994,0 1.871948,-0.328125 2.679169,0.020828c0.713974,0.30864 1.225311,0.976913 2.120834,0.979172c0.899994,0.002258 1.858322,0 1.399994,0c-0.800003,0 -1.818481,0.052429 -1.998672,0.801331c-0.214615,0.891983 -0.74791,1.516296 -1.285324,2.11467c-0.573425,0.638458 -1.347305,1.069794 -1.741333,1.694672c-0.471985,0.748505 -0.763672,1.64296 -1.195999,2.489334c-0.334732,0.655304 -0.770264,1.517776 -1.204002,2.299988c-0.454781,0.820145 -0.252312,1.753799 -0.796005,2.478668c-0.482307,0.643021 -0.778664,1.321335 -0.778664,2.221344c0,0.899994 0,1.699997 0,2.599991c0,0.900009 0,1.800003 0,2.699997c0,0.900009 -0.16552,1.902817 0.352669,2.547333c0.491531,0.611374 1.088631,1.208481 1.700005,1.700012c0.644516,0.518188 1.709229,0.316528 2.447327,0.873489c0.665588,0.502243 1.266541,1.324326 2.100006,1.468506c0.886887,0.153412 1.743546,0.077606 2.425323,0.585327c0.640808,0.477219 1.574677,0.425339 2.47467,0.425339c0.899994,0 1.800003,0 2.699997,0c0.900009,0 1.836441,0.168167 2.600006,-0.085327c0.772171,-0.256348 1.531372,-0.814713 2.174667,-1.340012c0.677231,-0.553024 1.343262,-1.163803 2.125336,-1.453156c0.85173,-0.315125 1.646576,-0.439133 2.18399,-1.037506c0.573425,-0.638458 1.123306,-1.176376 1.768677,-1.731339c0.581985,-0.500458 1.415695,-0.914642 2.24733,-1.299988c0.871857,-0.403976 1.534546,-0.68782 2.399994,-1.105347c0.81871,-0.394974 1.087448,-1.436508 1.742676,-1.825989c0.747498,-0.444321 1.65477,-0.602707 2.204666,-1.174011c0.632919,-0.657547 1.225418,-1.329163 1.869995,-1.74733c0.739182,-0.479538 1.411087,-1.287476 2.082672,-1.763992c0.725647,-0.514893 1.228378,-1.062119 1.757156,-1.731506c0.585312,-0.740982 1.406418,-1.01564 1.995499,-1.651825c0.53299,-0.575592 1.293655,-0.86232 2.036667,-1.488678c0.630539,-0.531555 0.962601,-1.391129 1.557999,-1.916656c0.638153,-0.563263 0.996323,-1.398972 1.757172,-1.642838c0.895493,-0.287018 0.931137,-0.916672 1.352661,-1.647339c0.467926,-0.811111 1.305603,-1.172272 1.890167,-1.709824c0.58226,-0.535431 1.445694,-0.937363 1.931335,-1.747177c0.437576,-0.729645 1.236221,-0.811874 2.006668,-0.985489c0.792694,-0.178635 1.606644,-0.73671 2.478668,-0.878677c0.92897,-0.151245 1.802673,-0.035995 2.636002,-0.035995c0.978668,0 1.753754,-0.039734 2.652664,0.004501c0.866074,0.042618 1.701996,0.486572 2.680664,0.995499c0.649292,0.337646 1.502731,0.420761 2.302505,1.100006c0.578583,0.491379 1.038849,1.271606 1.8815,1.614655c0.910736,0.370758 1.403778,0.959686 1.918671,1.685333c0.476517,0.671585 1.253464,1.017426 2.043167,1.600006c0.63797,0.470657 1.313568,0.588287 0.520828,0.166672c-0.634399,-0.337402 -1.600021,-0.161346 -2.5,-0.166672c-0.90004,-0.005341 -1.718811,-0.500488 -2.5,-0.833328c-0.751541,-0.320206 -1.699997,-0.166672 -2.600006,-0.166672c-0.899994,0 -1.834824,-0.242874 -2.695496,0.004501c-0.767899,0.220718 -1.168335,1.124512 -1.757172,1.642838c-0.650558,0.572647 -1.68631,0.896851 -1.911331,1.752655c-0.227966,0.866959 -0.706528,1.40686 -1.015167,2.120834c-0.348953,0.80722 0.115723,1.835815 -0.304825,2.679169c-0.329926,0.661652 -0.713745,1.499985 -0.716003,2.400009c-0.002243,0.899994 0,1.799988 0,2.699997c0,0.899994 0,1.800003 0,2.699997c0,0.800003 0.215988,1.548035 0.833328,2.166672c0.617645,0.618958 1.151154,1.249847 1.666672,1.833328c0.563568,0.637878 1.204498,1.052673 2,1.5c0.795502,0.447327 1.306488,1.171387 2.020828,1.479172c0.89946,0.387543 1.835815,-0.115723 2.679169,0.304825c0.661652,0.329926 1.499985,0.713745 2.400009,0.716003c0.899994,0.002243 1.799988,0.000656 2.699997,0c0.901337,-0.000671 1.875458,-0.145798 2.535995,-0.436005c0.776428,-0.341125 1.56398,-0.764023 2.363998,-1.164001c0.999817,-0.499863 1.571091,-0.833542 2.314667,-1.114655c0.965134,-0.364883 1.811737,-0.722305 2.506165,-1.306168c0.584671,-0.491592 1.379013,-1.091949 2.143173,-1.568512c0.815598,-0.508652 1.298096,-1.06662 1.810669,-1.799988c0.469345,-0.671509 1.339157,-0.953094 2.02533,-1.610672c0.612625,-0.587112 1.300003,-1.300003 1.800003,-1.800003c0.699997,-0.699997 1.398071,-1.401917 1.899994,-1.899994c0.697342,-0.692017 1.679718,-0.982544 2.216003,-1.585342c0.578217,-0.649933 1.022186,-1.196503 1.726837,-1.767334c0.730499,-0.591782 1.040817,-1.344727 1.714325,-1.894653c0.7034,-0.574326 1.38916,-0.914322 2.042831,-1.442001c0.744415,-0.600922 1.339081,-1.218536 2.036011,-1.574677c0.859406,-0.439163 1.686737,-0.454346 2.563995,-0.869324c0.712601,-0.337082 1.672516,-0.486679 2.347336,-0.87117c0.792999,-0.451828 1.468628,-0.968765 2.25267,-1.320831c0.820328,-0.368362 1.412643,-1.20256 2.157166,-1.617508c0.82991,-0.46254 1.661194,-0.356628 2.644165,-0.641159c0.630203,-0.182419 1.761566,-0.580856 2.546829,-0.658844c0.787979,-0.078262 1.718506,-0.057159 2.630508,-0.057159c0.921326,0 1.82132,0 2.721329,0c0.899994,0 1.800003,0 2.699997,0c0.800003,0 1.699997,0 2.600006,0c0.899994,0 1.799988,-0.000671 2.699997,0c0.898666,0.000671 1.461273,0.361649 1.921494,1.099838c0.447113,0.717163 1.489868,0.932266 2.178497,1.3255c0.812775,0.464127 1.905243,0.164627 1.591003,-0.72084c-0.279297,-0.787064 -1.265503,-0.786194 -2.005676,-1.27916c-0.672546,-0.447922 -1.585327,-0.425339 -2.485321,-0.425339c-0.899994,0 -1.800003,0 -2.699997,0c-0.900009,0 -1.845444,-0.193802 -2.600006,0.085327c-0.869598,0.321686 -1.175812,1.303024 -1.699997,1.914673c-0.553879,0.646301 -0.994049,1.280472 -1.721497,1.878662c-0.728271,0.598862 -1.225708,0.943176 -1.803833,1.685333c-0.486099,0.624023 -1.259918,1.11441 -1.890671,1.720001c-0.572861,0.550003 -1.024185,1.266769 -1.436661,2.016006c-0.4617,0.838654 -0.253754,1.6306 -0.732666,2.414658c-0.490646,0.803284 -0.733337,1.438812 -1.081345,2.285339c-0.275894,0.671082 -0.822906,1.499817 -0.833328,2.399994c-0.010406,0.899948 -0.124008,1.808609 0.000168,2.699844c0.111725,0.801865 0.813751,1.32402 1.285172,2.100159c0.410812,0.676376 1.126129,1.185822 1.630661,1.998672c0.457062,0.736374 0.901749,1.484283 1.694672,1.790665c0.829605,0.320557 1.789322,0.010666 2.689331,0.010666c0.899994,0 1.800003,0 2.699997,0c0.800003,0 1.699997,0 2.520828,0c0.964508,0 1.689835,0 2.679001,0c0.964172,0 2.0383,0.25177 2.678833,-0.221329c0.697418,-0.515106 1.001892,-1.311142 1.642181,-1.778671c0.788727,-0.575943 1.638123,-0.735855 2.479156,-1.166672c0.664337,-0.340302 1.396393,-1.066299 1.833344,-1.833328c0.444244,-0.779846 1.198547,-1.126541 1.766663,-1.610672c0.745331,-0.635162 1.495422,-1.052231 2.199982,-1.558655c0.737213,-0.529877 0.959961,-1.322037 1.800018,-1.845337c0.767426,-0.478073 1.5,-1.085327 2.100006,-1.685333c0.599976,-0.599991 1.228424,-1.387482 1.899994,-1.863998c0.725677,-0.514893 1.282898,-1.022034 1.757172,-1.736008c0.525848,-0.791641 1.255219,-1.334076 1.964142,-1.800003c0.658325,-0.432663 1.640381,-0.773117 2.232025,-1.5c0.564819,-0.693924 1.021393,-1.107849 1.835999,-1.41066c0.73349,-0.272659 1.25827,-0.949478 2.021332,-1.425339c0.800323,-0.4991 1.421875,-0.970627 2.190643,-1.363998c0.795197,-0.406891 1.602295,-0.792892 2.598358,-1.300003c0.581116,-0.295853 1.295593,-1.039734 1.84848,-1.542831c0.616119,-0.560623 1.651855,-0.357162 2.551849,-0.357162c0.899994,0 1.799988,0 2.699982,0c0.900024,0 1.800659,-0.033905 2.700012,0c0.758789,0.028595 1.640564,0.383011 2.347321,0.647339c0.990906,0.37059 1.593872,0.930008 2.263336,1.377991c0.735443,0.492126 1.691162,0.736404 2.305328,1.258667c0.653778,0.555923 0.95285,1.456238 1.694672,1.705338c0.869965,0.292145 0.563507,-0.441101 -0.174652,-1.014664c-0.624603,-0.485336 -1.237335,-0.973999 -2.136017,-0.97467c-0.899994,-0.000671 -1.799988,0 -2.699982,0c-0.899994,0 -1.800018,0 -2.700012,0c-0.899994,0 -1.681091,0.117676 -2.5,0.574661c-0.772736,0.431213 -1.340118,0.976135 -1.752655,1.725342c-0.461823,0.838699 -0.764191,1.480759 -1.222015,2.300003c-0.431671,0.772446 -0.904724,1.511871 -1.477997,2.047333c-0.685211,0.640015 -1.167908,1.319336 -1.522003,1.952667c-0.481506,0.861252 -0.425323,1.799988 -0.425323,2.699997c0,0.899994 0.256256,1.924911 -0.221344,2.578659c-0.510712,0.699066 -0.778656,1.321335 -0.778656,2.221344c0,0.899994 -0.42865,1.853271 0.085327,2.614655c0.450775,0.66774 1.496643,0.898315 2.314667,1.26001c0.784485,0.346848 1.762177,0.596115 2.43335,1.192001c0.606293,0.538284 1.266663,0.833328 2.166656,0.833328c0.799988,0 1.700012,0 2.600006,0c0.899994,0 1.743561,-0.066956 2.425323,-0.574661c0.640808,-0.477219 1.375458,-0.625549 2.058685,-1.141342c0.615326,-0.464539 1.458954,-0.51004 2.137329,-1.162659c0.580078,-0.558044 0.958038,-1.26506 1.569336,-1.82933c0.410675,-0.379074 1.416901,-1.055298 2.277161,-1.659012c0.469879,-0.329758 0.960815,-0.664139 1.925995,-1.389328c0.475403,-0.357193 1.360321,-1.05542 2.064819,-1.755661c0.616119,-0.612366 1.041351,-1.259476 1.941345,-2.154678c0.557648,-0.554688 1.282318,-1.027481 1.93866,-1.722656c0.579224,-0.61348 1.375153,-0.953094 2.06134,-1.610672c0.510529,-0.489243 1.200012,-1.200012 1.799988,-1.800003c0.600006,-0.600006 1.210785,-1.418793 1.900024,-1.842834c0.821381,-0.505341 1.737396,-0.422516 2.325317,-0.931824c0.648621,-0.56192 1.14389,-1.251465 1.861328,-1.509338c0.95282,-0.342468 1.522675,-0.610947 2.512024,-1.115997c0.769135,-0.392624 1.53006,-0.97879 2.226654,-1.363998c0.811676,-0.448853 1.72937,-0.325378 2.617493,-0.440506c0.876831,-0.113663 1.525787,-0.847321 2.457184,-0.990997c0.889496,-0.137207 1.799988,-0.004501 2.699982,-0.004501c0.899994,0 1.800018,0 2.700012,0c0.899994,0 1.700165,-0.01799 2.600006,0c0.900543,0.018005 1.740112,0.403336 2.215973,1.198669c0.41394,0.691849 0.959747,1.340485 1.604858,1.801331c0.697418,0.49823 1.56662,0.928421 2.043152,1.600006c0.514893,0.725647 0.811829,1.531235 1.488678,2.047333c0.657623,0.501434 1.434784,0.541367 2.113983,1.185989c0.634216,0.601959 1.456177,0.916504 1.8125,1.6875c0.364594,0.788895 0.744995,1.570557 1.010162,0.8685c0.31424,-0.832031 -0.054688,-1.826767 -0.563995,-2.414658c-0.56192,-0.648621 -1.238068,-1.145737 -1.425323,-1.97467c-0.199646,-0.883713 -1.224915,-0.743729 -1.878662,-1.221329c-0.699097,-0.510712 -1.32135,-0.778671 -2.221344,-0.778671c-0.899994,0 -1.699982,0 -2.600006,0c-0.899994,0 -1.909271,-0.167282 -2.59549,0.357162c-0.750244,0.573395 -1.015656,1.406418 -1.651825,1.995499c-0.575592,0.53299 -1.212738,1.077576 -1.768677,1.731339c-0.522278,0.614182 -1.028687,1.453751 -1.247986,2.315994c-0.220947,0.868759 -0.706512,1.40686 -1.015167,2.120834c-0.348969,0.80722 -0.020844,1.779175 -0.020844,2.679169c0,0.900009 0,1.800003 0,2.600006c0,0.899994 0,1.800003 0,2.699997c0,0.899994 -0.000092,1.800003 0,2.699997c0.000092,0.899841 0.546661,1.470322 0.942841,2.157166c0.469849,0.814575 0.531158,1.536591 1.257172,1.926834c0.854767,0.459457 1.599976,0.715332 2.5,0.716003c0.899994,0.000656 1.799988,0 2.699982,0c0.899994,0 1.800018,0 2.700012,0c0.899994,0 1.699982,0 2.600006,0c0.899994,0 1.731812,-0.071884 2.325317,-0.574661c0.633698,-0.536835 1.49826,-0.885742 2.270172,-1.372665c0.702454,-0.443115 1.225189,-1.040054 2.104492,-1.052673c0.895416,-0.012863 1.501862,-0.633896 2.141663,-1c0.854584,-0.488998 1.658844,-0.570526 2.436829,-1.099838c0.743622,-0.505936 1.395325,-1.011673 2.074188,-1.547501c0.580048,-0.45784 1.58139,-0.415085 2.031342,-1.153992c0.428558,-0.703781 1.113312,-1.401367 1.715973,-1.998672c0.597351,-0.592026 1.496796,-0.979996 2.147339,-1.552658c0.588837,-0.518326 0.928558,-1.241531 1.488678,-2.047333c0.470001,-0.676163 1.253448,-1.017426 2.043152,-1.600006c0.63797,-0.470657 1.285889,-0.962402 2.020844,-1.520828c0.66391,-0.504456 1.21225,-1.094391 2.100006,-1.504501c0.811951,-0.375107 1.596985,-0.931961 2.5,-0.97467c0.898987,-0.042526 1.658234,0.039536 2.552673,-0.004501c0.866028,-0.042633 1.649353,-0.546616 2.548645,-0.911499c0.652679,-0.264816 1.606415,-0.555389 2.314667,-0.800003c0.943756,-0.325943 1.884003,-0.28334 2.783997,-0.283997c0.900024,-0.000671 1.758392,-0.287079 2.400024,-0.647339c0.778992,-0.437378 1.776703,-0.654617 2.47464,-0.927322c0.93222,-0.364243 1.709351,-0.424667 2.650696,-0.425339c1.007996,-0.000717 1.763977,0 2.674652,0c0.899994,0 1.804504,0 2.666656,0c0.854187,0 1.833344,0 2.644012,0c0.874664,0 1.874664,0 2.710175,0c0.583649,0 1.778992,0 2.668488,0c0.853516,0 1.889008,0 2.563995,0c1.080017,0 1.836029,-0.005463 2.746674,0c0.889404,0.005341 2.073578,0.439209 1.914673,1.378662c-0.008484,0.050217 -0.824921,-0.45311 -1.440002,-0.953323c-0.619873,-0.50412 -1.366089,-0.638199 -2.058685,-1.141342c-0.688477,-0.500153 -1.741333,-0.283997 -2.431976,-0.283997c-0.984009,0 -1.968018,0 -2.658661,0c-1.068176,0 -1.925354,0 -2.825348,0c-0.799988,0 -1.700958,0.05545 -2.5,0.5c-0.800934,0.445618 -1.819305,0.687988 -2.214661,1.301331c-0.520203,0.806992 -0.7612,1.762527 -1.585327,2.145996c-0.766693,0.35675 -1.64563,0.524307 -2.342834,1.105347c-0.591492,0.492935 -0.847534,1.478333 -1.55719,2.145996c-0.576355,0.542252 -1.272003,1.00119 -1.966644,1.634659c-0.599152,0.546371 -1.441742,0.905472 -1.797333,1.602676c-0.392975,0.770523 -0.303864,1.77948 -0.837341,2.363998c-0.65686,0.719696 -1.155945,1.396973 -1.198669,2.300003c-0.042511,0.898987 0,1.699997 0,2.599991c0,0.900009 0,1.800003 0,2.699997c0,0.900009 -0.082123,1.803772 0.000153,2.700012c0.083679,0.911438 0.557098,1.557358 1.299835,2.195496c0.750824,0.645096 1.630585,0.310913 2.414673,0.789825c0.803284,0.490646 1.385345,0.914673 2.285339,0.914673c0.799988,0 1.700012,0 2.600006,0c0.899994,0 1.799988,0 2.699982,0c0.900024,0 1.8013,0.047791 2.700012,0c0.803375,-0.042725 1.53717,-0.746948 2.399994,-0.964005c0.873505,-0.219742 1.800018,-0.035995 2.700012,-0.035995c0.899994,0 1.699982,0 2.600006,0c0.899994,0 1.717346,-0.089478 2.325317,-0.574661c0.624512,-0.498383 1.697418,-0.279343 2.364014,-0.861343c0.698181,-0.609573 0.963318,-1.502335 1.574646,-1.127991l0.02533,0.963989l-0.274658,0.804001l-0.419159,0.667511" id="svg_24" stroke-linecap="null" stroke-linejoin="null" stroke-dasharray="null" stroke-width="5" stroke="#000000" fill="#007fff"/>
  <path stroke="#000000" id="svg_27" d="m63.505341,200.858523c1.599998,0.629142 2.292618,1.34704 2.800003,1.854444c0.710648,0.710683 1.516289,1.163066 2.374664,1.225302c0.937744,0.06799 1.825692,0.035559 2.625336,0.010989c0.958443,-0.02946 1.850395,-0.396639 2.446663,-0.592042c1.15628,-0.378922 1.980347,-0.395901 2.528,-0.4643c1.309089,-0.163491 2.001442,-0.419386 2.678001,-0.699709c0.970589,-0.402157 1.771858,-0.691457 2.537499,-1.025608c0.879196,-0.3837 1.599029,-0.9665 2.331169,-1.442179c0.657631,-0.427278 1.808838,-0.516727 2.512001,-1.0991c0.681496,-0.564437 1.055252,-1.27883 1.6875,-1.910235c0.626228,-0.625385 0.939796,-1.330204 1.779167,-1.925877c0.713089,-0.506052 1.401123,-0.837797 2.110664,-1.56648c0.757203,-0.777635 1.269349,-1.250518 1.727997,-1.81736c0.74791,-0.924322 0.981629,-1.734798 1.722672,-2.292632c0.620376,-0.467003 1.511467,-1.020766 2.138664,-1.648398c0.608673,-0.609083 1.300003,-1.339322 1.800003,-1.854444c0.699997,-0.721168 1.399994,-1.442337 1.899994,-1.957459c0.700005,-0.721168 1.399193,-1.443186 1.900001,-1.957475c0.698884,-0.717694 1.550026,-1.014509 2.233338,-1.61405c0.739868,-0.649153 0.992065,-1.351379 2,-1.717064c0.73571,-0.26693 1.561104,-0.619364 2.365333,-1.115417c0.743622,-0.458671 1.249436,-0.967176 2.101334,-1.121423c0.928169,-0.168066 1.468147,-0.867352 2.335999,-1.014619c1.003204,-0.170236 1.711334,-0.010989 2.727996,-0.010989c0.936005,0 1.835999,0 2.736,0c0.900002,0 1.734444,0.20188 2.599999,-0.058888c0.87764,-0.2644 1.598648,-0.941897 2.5,-0.971357c0.899551,-0.029397 1.800003,0 2.600006,0c0.899994,0 1.871948,-0.338049 2.679169,0.021458c0.713974,0.317975 1.225311,1.006461 2.120834,1.008787c0.899994,0.002326 1.858322,0 1.399994,0c-0.800003,0 -1.818481,0.054015 -1.998672,0.825567c-0.214615,0.918961 -0.74791,1.562156 -1.285325,2.178627c-0.573425,0.657769 -1.347305,1.10215 -1.741333,1.745927c-0.471984,0.771144 -0.763671,1.692651 -1.195999,2.564624c-0.334732,0.675124 -0.770263,1.563682 -1.204002,2.369551c-0.454781,0.84495 -0.252312,1.806843 -0.796005,2.553635c-0.482308,0.662469 -0.778664,1.361299 -0.778664,2.288529c0,0.927214 0,1.751414 0,2.678628c0,0.92723 0,1.854444 0,2.781659c0,0.92723 -0.16552,1.960368 0.352669,2.624377c0.491531,0.629865 1.08863,1.245031 1.700004,1.751429c0.644516,0.533861 1.709229,0.326101 2.447327,0.899908c0.665588,0.517433 1.266541,1.36438 2.100006,1.512921c0.886887,0.158052 1.743546,0.079953 2.425324,0.60303c0.640808,0.491653 1.574676,0.438203 2.47467,0.438203c0.899994,0 1.800003,0 2.699997,0c0.900009,0 1.836441,0.173253 2.600006,-0.087908c0.772171,-0.264101 1.531372,-0.839354 2.174667,-1.380541c0.677231,-0.56975 1.343262,-1.199002 2.125336,-1.497106c0.85173,-0.324656 1.646576,-0.452415 2.183991,-1.068885c0.573425,-0.657769 1.123306,-1.211957 1.768676,-1.783703c0.581986,-0.515594 1.415696,-0.942305 2.24733,-1.339306c0.871857,-0.416194 1.534546,-0.708623 2.399994,-1.138777c0.81871,-0.40692 1.087448,-1.479956 1.742676,-1.881216c0.747497,-0.45776 1.65477,-0.620936 2.204666,-1.209519c0.632919,-0.677435 1.225418,-1.369364 1.869995,-1.800178c0.739182,-0.494042 1.411087,-1.326416 2.082672,-1.817344c0.725647,-0.530466 1.228378,-1.094243 1.757156,-1.783877c0.585312,-0.763393 1.406418,-1.046358 1.995499,-1.701785c0.53299,-0.593001 1.293656,-0.888401 2.036667,-1.533703c0.630539,-0.547632 0.962601,-1.433203 1.557999,-1.974625c0.638153,-0.580299 0.996322,-1.441284 1.757171,-1.692526c0.895493,-0.295698 0.931137,-0.944396 1.352661,-1.697163c0.467926,-0.835643 1.305603,-1.207726 1.890168,-1.761537c0.58226,-0.551625 1.445694,-0.965714 1.931335,-1.80002c0.437576,-0.751713 1.236221,-0.83643 2.006668,-1.015295c0.792694,-0.184038 1.606644,-0.758992 2.478668,-0.905254c0.928971,-0.155819 1.802674,-0.037084 2.636002,-0.037084c0.978668,0 1.753754,-0.040936 2.652664,0.004637c0.866074,0.043907 1.701996,0.501289 2.680664,1.025608c0.649292,0.347858 1.502732,0.433487 2.302506,1.133276c0.578583,0.506241 1.038849,1.310067 1.8815,1.66349c0.910736,0.381972 1.403778,0.988712 1.918671,1.736306c0.476516,0.691897 1.253463,1.048197 2.043167,1.648398c0.63797,0.484892 1.313568,0.60608 0.520828,0.171713c-0.634399,-0.347608 -1.600021,-0.166227 -2.5,-0.171713c-0.90004,-0.005503 -1.718811,-0.515625 -2.5,-0.858532c-0.751541,-0.329891 -1.699997,-0.171713 -2.600006,-0.171713c-0.899994,0 -1.834824,-0.25022 -2.695496,0.004637c-0.767898,0.227395 -1.168335,1.158523 -1.757171,1.692526c-0.650559,0.589967 -1.68631,0.923975 -1.911332,1.805664c-0.227966,0.89318 -0.706527,1.449411 -1.015167,2.184979c-0.348953,0.831635 0.115723,1.89134 -0.304825,2.760201c-0.329925,0.681664 -0.713745,1.545352 -0.716003,2.472597c-0.002243,0.927214 0,1.854429 0,2.781659c0,0.927214 0,1.854444 0,2.781659c0,0.824199 0.215988,1.594855 0.833328,2.232203c0.617646,0.637677 1.151154,1.287649 1.666672,1.888777c0.563568,0.657171 1.204498,1.084511 2,1.545368c0.795502,0.460856 1.306488,1.206816 2.020828,1.52391c0.89946,0.399263 1.835816,-0.119223 2.679169,0.314044c0.661652,0.339904 1.499985,0.735332 2.400009,0.737659c0.899994,0.002311 1.799988,0.000676 2.699997,0c0.901337,-0.000691 1.875458,-0.150208 2.535996,-0.449192c0.776428,-0.351442 1.56398,-0.78713 2.363998,-1.199206c0.999817,-0.514981 1.571091,-0.858753 2.314667,-1.148368c0.965133,-0.375919 1.811737,-0.744151 2.506164,-1.345672c0.584671,-0.506461 1.379013,-1.124976 2.143173,-1.615952c0.815598,-0.524036 1.298096,-1.09888 1.810669,-1.854429c0.469346,-0.691819 1.339158,-0.98192 2.02533,-1.659387c0.612625,-0.604869 1.300003,-1.339322 1.800003,-1.854444c0.699997,-0.721168 1.398071,-1.444318 1.899994,-1.957459c0.697342,-0.712947 1.679718,-1.012261 2.216003,-1.633291c0.578217,-0.66959 1.022187,-1.232691 1.726838,-1.820787c0.730499,-0.60968 1.040817,-1.385398 1.714324,-1.951958c0.7034,-0.591695 1.389161,-0.941976 2.042832,-1.485614c0.744415,-0.619097 1.339081,-1.255391 2.036011,-1.622303c0.859405,-0.452446 1.686737,-0.468087 2.563995,-0.895616c0.712601,-0.347277 1.672516,-0.501399 2.347336,-0.897519c0.792999,-0.465494 1.468628,-0.998066 2.25267,-1.360781c0.820328,-0.379503 1.412644,-1.238932 2.157166,-1.66643c0.82991,-0.476529 1.661193,-0.367414 2.644165,-0.660551c0.630203,-0.187935 1.761566,-0.598424 2.546829,-0.678771c0.787979,-0.080629 1.718506,-0.058888 2.630508,-0.058888c0.921326,0 1.82132,0 2.721329,0c0.899994,0 1.800003,0 2.699997,0c0.800003,0 1.699997,0 2.600006,0c0.899994,0 1.799988,-0.000691 2.699997,0c0.898666,0.000691 1.461273,0.372587 1.921494,1.133103c0.447113,0.738854 1.489868,0.960462 2.178497,1.365591c0.812775,0.478164 1.905243,0.169606 1.591003,-0.742643c-0.279297,-0.810868 -1.265503,-0.809972 -2.005676,-1.317847c-0.672546,-0.461469 -1.585327,-0.438203 -2.485321,-0.438203c-0.899994,0 -1.800003,0 -2.699997,0c-0.900009,0 -1.845444,-0.199664 -2.600006,0.087908c-0.869598,0.331415 -1.175812,1.342434 -1.699997,1.972582c-0.553879,0.665848 -0.994049,1.3192 -1.721497,1.935482c-0.728271,0.616975 -1.225708,0.971702 -1.803833,1.736306c-0.486099,0.642898 -1.259918,1.148116 -1.89067,1.772024c-0.572861,0.566638 -1.024186,1.305083 -1.436661,2.07698c-0.461701,0.864019 -0.253754,1.679918 -0.732666,2.487689c-0.490647,0.827578 -0.733338,1.482329 -1.081345,2.354459c-0.275894,0.691379 -0.822906,1.545179 -0.833328,2.472582c-0.010406,0.927167 -0.124008,1.86331 0.000168,2.781501c0.111725,0.826117 0.813751,1.364066 1.285171,2.163678c0.410813,0.696833 1.12613,1.221686 1.630661,2.059122c0.457062,0.758646 0.901749,1.529176 1.694672,1.844824c0.829605,0.330252 1.789322,0.010989 2.689331,0.010989c0.899994,0 1.800003,0 2.699997,0c0.800003,0 1.699997,0 2.520828,0c0.964508,0 1.689835,0 2.679001,0c0.964172,0 2.0383,0.259385 2.678833,-0.228023c0.697418,-0.530685 1.001892,-1.350798 1.642182,-1.832467c0.788726,-0.593362 1.638122,-0.758111 2.479156,-1.201958c0.664337,-0.350593 1.396393,-1.098549 1.833344,-1.888777c0.444244,-0.803432 1.198547,-1.160613 1.766662,-1.659387c0.745331,-0.654373 1.495422,-1.084056 2.199982,-1.605797c0.737213,-0.545902 0.959961,-1.362022 1.800018,-1.901149c0.767426,-0.492532 1.5,-1.118153 2.100006,-1.736306c0.599976,-0.618138 1.228424,-1.429446 1.899994,-1.920375c0.725678,-0.530466 1.282898,-1.052945 1.757172,-1.788514c0.525848,-0.815584 1.255218,-1.374425 1.964142,-1.854444c0.658325,-0.445749 1.64038,-0.7965 2.232025,-1.545368c0.564819,-0.714912 1.021393,-1.141356 1.835998,-1.453326c0.73349,-0.280906 1.258271,-0.978195 2.021332,-1.468448c0.800324,-0.514194 1.421875,-0.999983 2.190643,-1.405252c0.795197,-0.419197 1.602295,-0.816874 2.598359,-1.339322c0.581115,-0.304801 1.295593,-1.071181 1.84848,-1.589495c0.616119,-0.577579 1.651855,-0.367964 2.551849,-0.367964c0.899994,0 1.799988,0 2.699982,0c0.900024,0 1.800659,-0.03493 2.700012,0c0.758789,0.02946 1.640564,0.394595 2.347321,0.666918c0.990905,0.381799 1.593872,0.958136 2.263336,1.419668c0.735443,0.50701 1.691162,0.758677 2.305328,1.296735c0.653778,0.572737 0.95285,1.500281 1.694672,1.756915c0.869964,0.300981 0.563507,-0.454442 -0.174652,-1.045353c-0.624604,-0.500015 -1.237336,-1.003458 -2.136017,-1.004149c-0.899994,-0.000691 -1.799988,0 -2.699982,0c-0.899994,0 -1.800018,0 -2.700012,0c-0.899994,0 -1.681091,0.121235 -2.5,0.592042c-0.772736,0.444256 -1.340119,1.005659 -1.752655,1.777525c-0.461823,0.864066 -0.764191,1.525545 -1.222016,2.369567c-0.431671,0.795809 -0.904724,1.557598 -1.477996,2.109255c-0.685212,0.659372 -1.167908,1.359239 -1.522004,2.011726c-0.481506,0.887301 -0.425323,1.854429 -0.425323,2.781659c0,0.927214 0.256256,1.983131 -0.221344,2.656651c-0.510712,0.720209 -0.778656,1.361299 -0.778656,2.288529c0,0.927214 -0.42865,1.909324 0.085327,2.693735c0.450775,0.687936 1.496643,0.925485 2.314667,1.298118c0.784485,0.357338 1.762176,0.614146 2.43335,1.228054c0.606292,0.554564 1.266662,0.858532 2.166656,0.858532c0.799988,0 1.700012,0 2.600006,0c0.899994,0 1.743561,-0.068981 2.425324,-0.592042c0.640808,-0.491653 1.375457,-0.64447 2.058685,-1.175862c0.615326,-0.478589 1.458954,-0.525467 2.137329,-1.197824c0.580078,-0.574923 0.958038,-1.303323 1.569336,-1.884659c0.410675,-0.390539 1.416901,-1.087215 2.277161,-1.709188c0.469879,-0.339732 0.960815,-0.684226 1.925994,-1.431348c0.475403,-0.367996 1.360321,-1.087341 2.06482,-1.808761c0.616119,-0.630887 1.041351,-1.297569 1.941345,-2.219847c0.557648,-0.571464 1.282318,-1.058557 1.93866,-1.774758c0.579223,-0.632035 1.375152,-0.98192 2.06134,-1.659387c0.510529,-0.50404 1.200012,-1.236306 1.799988,-1.854444c0.600006,-0.618153 1.210785,-1.461704 1.900024,-1.898572c0.821381,-0.520624 1.737396,-0.435294 2.325318,-0.960006c0.64862,-0.578915 1.14389,-1.289316 1.861328,-1.554989c0.95282,-0.352826 1.522674,-0.629424 2.512024,-1.14975c0.769134,-0.404499 1.530059,-1.008394 2.226654,-1.405252c0.811676,-0.462429 1.72937,-0.33522 2.617492,-0.453829c0.876831,-0.117101 1.525788,-0.872948 2.457184,-1.020971c0.889496,-0.141357 1.799988,-0.004637 2.699982,-0.004637c0.899994,0 1.800018,0 2.700012,0c0.899994,0 1.700165,-0.018534 2.600006,0c0.900543,0.01855 1.740113,0.415535 2.215973,1.234923c0.413941,0.712774 0.959747,1.381028 1.604859,1.855812c0.697418,0.513299 1.566619,0.956501 2.043151,1.648398c0.514893,0.747594 0.811829,1.577547 1.488678,2.109255c0.657624,0.5166 1.434784,0.55774 2.113983,1.221859c0.634217,0.620165 1.456177,0.944224 1.8125,1.738539c0.364594,0.812755 0.744996,1.618059 1.010163,0.894768c0.314239,-0.857196 -0.054688,-1.882018 -0.563996,-2.487689c-0.56192,-0.668238 -1.238067,-1.180389 -1.425323,-2.034394c-0.199646,-0.910441 -1.224915,-0.766223 -1.878662,-1.258268c-0.699097,-0.526157 -1.32135,-0.802222 -2.221344,-0.802222c-0.899994,0 -1.699982,0 -2.600006,0c-0.899994,0 -1.909271,-0.172341 -2.59549,0.367964c-0.750244,0.590737 -1.015655,1.448955 -1.651825,2.055853c-0.575592,0.54911 -1.212738,1.110167 -1.768676,1.783703c-0.522278,0.632757 -1.028687,1.497719 -1.247986,2.386041c-0.220948,0.895035 -0.706513,1.449411 -1.015167,2.184979c-0.348969,0.831635 -0.020844,1.832986 -0.020844,2.760201c0,0.92723 0,1.854444 0,2.678643c0,0.927214 0,1.854444 0,2.781659c0,0.927214 -0.000092,1.854444 0,2.781659c0.000092,0.927057 0.546661,1.514792 0.942841,2.222409c0.469848,0.839213 0.531158,1.583065 1.257171,1.985112c0.854767,0.473353 1.599976,0.736967 2.5,0.737659c0.899994,0.000676 1.799988,0 2.699982,0c0.899994,0 1.800018,0 2.700012,0c0.899994,0 1.699982,0 2.600006,0c0.899994,0 1.731812,-0.074058 2.325318,-0.592042c0.633697,-0.553072 1.49826,-0.912531 2.270172,-1.414182c0.702453,-0.456517 1.225189,-1.071511 2.104492,-1.084511c0.895416,-0.013252 1.501861,-0.653068 2.141662,-1.030245c0.854584,-0.503788 1.658844,-0.587782 2.436829,-1.133103c0.743622,-0.521238 1.395325,-1.042271 2.074188,-1.594305c0.580048,-0.471687 1.581391,-0.427639 2.031342,-1.188895c0.428558,-0.725067 1.113312,-1.443751 1.715973,-2.059122c0.597351,-0.609932 1.496795,-1.009636 2.147339,-1.599618c0.588836,-0.534003 0.928558,-1.279082 1.488678,-2.109255c0.470001,-0.696614 1.253448,-1.048197 2.043151,-1.648398c0.63797,-0.484892 1.285889,-0.99151 2.020844,-1.566826c0.66391,-0.519713 1.21225,-1.127491 2.100006,-1.550006c0.811951,-0.386451 1.596985,-0.960148 2.5,-1.004149c0.898987,-0.043812 1.658234,0.040732 2.552673,-0.004637c0.866028,-0.043922 1.649353,-0.563148 2.548645,-0.939067c0.65268,-0.272826 1.606415,-0.572188 2.314667,-0.824199c0.943756,-0.335801 1.884003,-0.291911 2.783997,-0.292587c0.900024,-0.000691 1.758392,-0.295762 2.400024,-0.666918c0.778992,-0.450607 1.776703,-0.674416 2.47464,-0.955369c0.932221,-0.37526 1.709351,-0.437512 2.650696,-0.438203c1.007996,-0.000739 1.763977,0 2.674652,0c0.899994,0 1.804504,0 2.666656,0c0.854188,0 1.833344,0 2.644013,0c0.874664,0 1.874664,0 2.710175,0c0.583648,0 1.778991,0 2.668487,0c0.853516,0 1.889008,0 2.563995,0c1.080018,0 1.836029,-0.005628 2.746674,0c0.889404,0.005503 2.073578,0.452493 1.914673,1.42036c-0.008484,0.051736 -0.824921,-0.466814 -1.440003,-0.982156c-0.619873,-0.519367 -1.366088,-0.657501 -2.058685,-1.175862c-0.688476,-0.51528 -1.741333,-0.292587 -2.431976,-0.292587c-0.984009,0 -1.968018,0 -2.658661,0c-1.068176,0 -1.925354,0 -2.825348,0c-0.799988,0 -1.700958,0.057127 -2.5,0.515123c-0.800934,0.459096 -1.819305,0.708796 -2.214661,1.34069c-0.520202,0.831398 -0.7612,1.815835 -1.585327,2.210902c-0.766693,0.36754 -1.64563,0.540165 -2.342834,1.138777c-0.591492,0.507845 -0.847534,1.523045 -1.55719,2.210902c-0.576355,0.558652 -1.272003,1.031472 -1.966644,1.684099c-0.599152,0.562897 -1.441742,0.932858 -1.797333,1.65115c-0.392975,0.793828 -0.303864,1.8333 -0.837342,2.435497c-0.65686,0.741463 -1.155944,1.439225 -1.198669,2.369567c-0.042511,0.926177 0,1.751414 0,2.678628c0,0.92723 0,1.854444 0,2.781659c0,0.92723 -0.082123,1.858327 0.000153,2.781674c0.083679,0.939005 0.557098,1.60446 1.299835,2.261899c0.750824,0.664607 1.630585,0.320317 2.414673,0.813713c0.803283,0.505487 1.385345,0.942337 2.285339,0.942337c0.799988,0 1.700012,0 2.600006,0c0.899994,0 1.799988,0 2.699982,0c0.900024,0 1.8013,0.049236 2.700012,0c0.803375,-0.044017 1.53717,-0.769539 2.399994,-0.993161c0.873505,-0.226387 1.800018,-0.037084 2.700012,-0.037084c0.899994,0 1.699982,0 2.600006,0c0.899994,0 1.717346,-0.092184 2.325318,-0.592042c0.624511,-0.513457 1.697418,-0.287792 2.364013,-0.887395c0.698181,-0.62801 0.963318,-1.547772 1.574646,-1.162106l0.02533,0.993145l-0.274658,0.828318l-0.419159,0.6877" stroke-linecap="null" stroke-linejoin="null" stroke-dasharray="null" stroke-width="5" fill="#007fff"/>
 </g>
</svg>